HIERARCHY
ROOT ui
{
	 OFFSET 0 0 0
	 CHANNELS 3 XPosition YPosition Z Position
	 EndSite
	 {
	 OFFSET 0 -1 0
	 }
}
ROOT li
{
	 OFFSET 0 0 0
	 CHANNELS 3 XPosition YPosition Z Position
	 EndSite
	 {
	 OFFSET 0 -1 0
	 }
}
ROOT ul
{
	 OFFSET 0 0 0
	 CHANNELS 3 XPosition YPosition Z Position
	 EndSite
	 {
	 OFFSET 0 -1 0
	 }
}
ROOT ll
{
	 OFFSET 0 0 0
	 CHANNELS 3 XPosition YPosition Z Position
	 EndSite
	 {
	 OFFSET 0 -1 0
	 }
}
ROOT tt
{
	 OFFSET 0 0 0
	 CHANNELS 3 XPosition YPosition Z Position
	 EndSite
	 {
	 OFFSET 0 -1 0
	 }
}
ROOT tb
{
	 OFFSET 0 0 0
	 CHANNELS 3 XPosition YPosition Z Position
	 EndSite
	 {
	 OFFSET 0 -1 0
	 }
}
ROOT td
{
	 OFFSET 0 0 0
	 CHANNELS 3 XPosition YPosition Z Position
	 EndSite
	 {
	 OFFSET 0 -1 0
	 }
}
ROOT v
{
	 OFFSET 0 0 0
	 CHANNELS 3 XPosition YPosition Z Position
	 EndSite
	 {
	 OFFSET 0 -1 0
	 }
}
ROOT bn
{
	 OFFSET 0 0 0
	 CHANNELS 3 XPosition YPosition Z Position
	 EndSite
	 {
	 OFFSET 0 -1 0
	 }
}
MOTION
Frames: 21
Frame Time: 0.002
-0.002154310941696167	-8.817989826202392E-4	0		0.4453183898925781	-2.38471337890625	0		-1.08189892578125	-0.02541004753112793	0		-0.8633557739257812	-2.403474853515625	0		1.2631640625	-0.8153984375	0		2.87324951171875	-0.5878663330078125	0		4.502662109375	-0.20070196533203125	0		5.75553076171875	0.26031695556640627	0		-0.11561637878417969	5.9347666015625	0		
-0.0024282329082489012	-0.0010637999773025512	0		0.4170413818359375	-2.384314208984375	0		-1.0821728515625	-0.025587902069091797	0		-0.7917794189453125	-2.4111513671875	0		1.262886962890625	-0.8155853271484375	0		2.900821533203125	-0.595640869140625	0		4.5113232421875	-0.20408799743652345	0		5.746259765625	0.26030023193359375	0		-0.13007269287109374	5.92487841796875	0		
-0.007609141826629639	0.0038524820804595947	0		0.45661224365234376	-2.391334228515625	0		-1.0655877685546875	-0.03212312316894531	0		-0.861893310546875	-2.40187890625	0		1.26259765625	-0.815777099609375	0		2.897804443359375	-0.5827794189453125	0		4.51416064453125	-0.19835633850097656	0		5.7411630859375	0.2691929626464844	0		-0.11613021850585938	5.9343984375	0		
0.0010516649484634398	0.0014772469997406006	0		0.4314166259765625	-2.386004638671875	0		-1.0746107177734374	-0.01912244987487793	0		-0.8242276000976563	-2.40385498046875	0		1.2643817138671876	-0.8120128784179688	0		2.909170654296875	-0.5992257080078125	0		4.5138642578125	-0.19856268310546876	0		5.74503466796875	0.27689666748046876	0		-0.11640202331542969	5.9342109375	0		
7.501159906387329E-4	0.0012904210090637206	0		0.44822686767578124	-2.380548583984375	0		-1.074912353515625	-0.019304988861083984	0		-0.8604683837890625	-2.400289306640625	0		1.2619940185546874	-0.8161622314453125	0		2.90303466796875	-0.5913009033203125	0		4.5104375	-0.2047036895751953	0		5.75854345703125	0.267397216796875	0		-0.11667992401123047	5.9340244140625	0		
-0.00850972843170166	0.0032945048809051515	0		0.4458521423339844	-2.383691162109375	0		-1.042306396484375	-0.024170598983764648	0		-0.8017939453125	-2.4016982421875	0		1.25862548828125	-0.8192869262695313	0		2.908560791015625	-0.5996183471679688	0		4.51013330078125	-0.20490406799316407	0		5.75442919921875	0.2762734375	0		-0.11696054840087891	5.933841796875	0		
-0.003915791988372803	-0.001985828995704651	0		0.44350155639648436	-2.385827880859375	0		-1.0795784912109374	-0.022573236465454102	0		-0.87600390625	-2.396331298828125	0		1.253177001953125	-0.8263629760742187	0		2.899322509765625	-0.596619140625	0		4.50983154296875	-0.20509750366210938	0		5.748943359375	0.26718170166015626	0		-0.11724003601074219	5.9336650390625	0		
-1.466419994831085E-4	7.603110074996948E-4	0		0.4193108520507812	-2.3805	0		-1.075809326171875	-0.019823657989501954	0		-0.8275023193359375	-2.406517822265625	0		1.25496484375	-0.8225794067382812	0		2.916544677734375	-0.62016845703125	0		4.4985615234375	-0.20405270385742189	0		5.73484228515625	0.2762833251953125	0		-0.10230841064453125	5.9431806640625	0		
0.0026583240032196044	0.004535945892333984	0		0.43194046020507815	-2.38493212890625	0		-1.055154296875	-0.02341883087158203	0		-0.8575924682617188	-2.397052978515625	0		1.2666822509765625	-0.822993896484375	0		2.9369072265625	-0.5897609252929688	0		4.5213408203125	-0.20170591735839843	0		5.74356298828125	0.2759192810058594	0		-0.10159120178222657	5.94199951171875	0		
0.027375267028808593	0.002864037036895752	0		0.47473165893554686	-2.382981201171875	0		-1.076343994140625	-0.02013028144836426	0		-0.823966064453125	-2.402909912109375	0		1.2574881591796876	-0.8199605712890625	0		2.907426025390625	-0.6003112182617187	0		4.5090029296875	-0.20561563110351563	0		5.73430908203125	0.2759434814453125	0		-0.11801919555664063	5.93318408203125	0		
-9.126240015029908E-4	3.08106005191803E-4	0		0.4185291748046875	-2.380954833984375	0		-1.076575439453125	-0.020268768310546876	0		-0.826242919921875	-2.405006591796875	0		1.293059814453125	-0.8298517456054687	0		2.930230224609375	-0.5989365844726563	0		4.50877099609375	-0.2057637176513672	0		5.73891015625	0.2676907958984375	0		-0.11824043273925781	5.9330439453125	0		
-0.0011169979572296144	1.78289994597435E-4	0		0.4442533874511719	-2.384626708984375	0		-1.080841552734375	-0.023313081741333008	0		-0.8284917602539063	-2.40709326171875	0		1.2928543701171875	-0.8299832763671875	0		2.909737548828125	-0.6126502685546875	0		4.49758984375	-0.2046704406738281	0		5.7297080078125	0.2677409057617188	0		-0.11843682861328125	5.93291455078125	0		
-0.005355813980102539	-0.0028572490215301514	0		0.42695233154296874	-2.39039111328125	0		-1.07695703125	-0.020515607833862304	0		-0.86460107421875	-2.4034619140625	0		1.29267626953125	-0.830104248046875	0		2.92674365234375	-0.60412939453125	0		4.51322119140625	-0.21412646484375	0		5.733697265625	0.2755301208496094	0		-0.11860771179199218	5.932794921875	0		
0.023550443649291992	-5.722240209579467E-4	0		0.4480251770019531	-2.37994140625	0		-1.071212646484375	-0.02574833869934082	0		-0.8606704711914063	-2.399655029296875	0		1.2536593017578126	-0.8234028930664062	0		2.9152412109375	-0.6210082397460938	0		4.50038671875	-0.198971923828125	0		5.73354736328125	0.2754158325195312	0		-0.11875283813476563	5.932685546875	0		
-0.006462523937225342	0.004952742099761963	0		0.41890621948242185	-2.379436279296875	0		-1.0772308349609374	-0.02072317695617676	0		-0.8269074096679687	-2.4054619140625	0		1.2924013671875	-0.8303152465820313	0		2.941236572265625	-0.6156531372070313	0		4.508115234375	-0.20623960876464845	0		5.733423828125	0.27531268310546875	0		-0.11887286376953125	5.9325859375	0		
-0.001667734980583191	-2.4001500010490418E-4	0		0.46964822387695315	-2.387588134765625	0		-1.0773306884765625	-0.020812259674072266	0		-0.8290496215820312	-2.407509033203125	0		1.2923011474609376	-0.8304053955078124	0		2.95007177734375	-0.6189310913085937	0		4.50801513671875	-0.20633123779296875	0		5.73815625	0.26711795043945313	0		-0.11897000885009766	5.93249658203125	0		
-0.010702858924865723	0.0018671779632568359	0		0.417684326171875	-2.3815849609375	0		-1.08147119140625	-0.023807945251464843	0		-0.7952407836914063	-2.413296875	0		1.290159912109375	-0.8334434814453126	0		2.941057373046875	-0.615824951171875	0		4.5038330078125	-0.2113280792236328	0		5.7332451171875	0.2751387939453125	0		-0.11904710388183594	5.93241650390625	0		
-0.005867832183837891	-0.0033073630332946776	0		0.4435562744140625	-2.385197998046875	0		-1.064680419921875	-0.031232208251953126	0		-0.8651185913085937	-2.403909912109375	0		1.290100341796875	-0.8335149536132812	0		2.9207099609375	-0.6294764404296875	0		4.5017109375	-0.2143574981689453	0		5.733185546875	0.27506689453125	0		-0.11812723541259766	5.93132421875	0		
0.0012358700037002563	0.0034815919399261474	0		0.430497802734375	-2.385990234375	0		-1.0565770263671874	-0.0244642391204834	0		-0.8143161010742187	-2.41203564453125	0		1.3038480224609375	-0.8438681030273437	0		2.9689716796875	-0.6155439453125	0		4.50167041015625	-0.21442048645019532	0		5.738310546875	0.2828980712890625	0		-0.10296344757080078	5.94094580078125	0		
0.023126245498657227	-0.0010329480171203612	0		0.4475986328125	-2.38040234375	0		-1.07344873046875	-0.017168220520019532	0		-0.8610971069335938	-2.400114990234375	0		1.2921005859375	-0.8306768798828125	0		2.9397275390625	-0.6259923706054688	0		4.507814453125	-0.2066024169921875	0		5.73312353515625	0.27494943237304686	0		-0.11917112731933593	5.93222509765625	0		
-0.0018709189891815187	-5.622590184211731E-4	0		0.44349386596679685	-2.385368408203125	0		-1.0775338134765624	-0.021135160446166992	0		-0.795363037109375	-2.413539794921875	0		1.290036376953125	-0.8336845092773437	0		2.9467861328125	-0.6231881103515625	0		4.500583984375	-0.2175023651123047	0		5.71995654296875	0.2671745910644531	0		-0.11917681884765625	5.93217431640625	0		
